<svg xmlns="http://www.w3.org/2000/svg" viewBox="0 0 100 100">
  <rect width="100" height="100" rx="12" fill="#0B0E1A"/>
  <g stroke="#C9A24B" stroke-width="2.2" stroke-linecap="round" stroke-linejoin="round" fill="none">
    <circle cx="50" cy="50" r="42" stroke-width="1.4"/>
    <g fill="#C9A24B" stroke="none">
      <circle cx="50" cy="9"  r="2.4"/><circle cx="79" cy="21" r="2.4"/><circle cx="91" cy="50" r="2.4"/>
      <circle cx="79" cy="79" r="2.4"/><circle cx="50" cy="91" r="2.4"/><circle cx="21" cy="79" r="2.4"/>
      <circle cx="9" cy="50" r="2.4"/><circle cx="21" cy="21" r="2.4"/>
    </g>
    <path d="M30 42 C 24 32, 28 24, 35 26 C 32 32, 36 38, 42 41"/>
    <path d="M70 42 C 76 32, 72 24, 65 26 C 68 32, 64 38, 58 41"/>
    <path d="M35 44 C 28 44, 24 48, 26 53"/>
    <path d="M65 44 C 72 44, 76 48, 74 53"/>
    <path d="M37 43 C 36 58, 41 71, 50 73 C 59 71, 64 58, 63 43"/>
    <path d="M43 66 C 47 70, 53 70, 57 66"/>
    <circle cx="44" cy="53" r="2" fill="#E7C766" stroke="none"/>
    <circle cx="56" cy="53" r="2" fill="#E7C766" stroke="none"/>
  </g>
</svg>
